<?xml version="1.0" encoding="UTF-8" standalone="no"?><svg xmlns="http://www.w3.org/2000/svg" id="icone" viewBox="0 0 512 512"><title>cloudy</title><path d="M457.63 374.33q-.64 3.08-1.56 6.05a10 10 0 0 0-12.76 4.86A54.46 54.46 0 0 1 431.77 401a10 10 0 0 0-.89 13.55q-2.38 1.64-4.91 3.07a10 10 0 0 0-11.34-5.48c-2.24.53-4.42 1.27-6.53 2-2.47.85-5.55 1.9-7.1 1.9h-.12c-85.26 1-171.7 1-257 0a113.37 113.37 0 0 1-15-4.25 81.76 81.76 0 0 1-9.75-6.65 14.92 14.92 0 0 1-1.54-1.5 50 50 0 0 1 63.71-55.52q-.3-4-.3-8.09a106 106 0 0 1 137-101.39c22.55 14.6 38.36 37.47 43.27 63.37l2.21 11.69 11.13-4.19a54.58 54.58 0 0 1 12.87-3.1 104.21 104.21 0 0 1 3.61 13.75 65 65 0 0 1 35.91-2.83c14 10.84 22.87 28.24 21.84 46.52a10 10 0 0 0 8.79 10.48z" fill="#b6c4cf"/><path d="M171.91 306.41a96.86 96.86 0 0 0-.84 12c.22.29.42.59.64.87a106.28 106.28 0 0 0 10.19 6.88A106.05 106.05 0 0 1 318 238.64a100.91 100.91 0 0 1 21.56 18.78c0-.22.11-.44.16-.67a96.49 96.49 0 0 0-8.63-8.84 96 96 0 0 0-44.41-94.38 106.06 106.06 0 0 0-132.19 132.2 96.76 96.76 0 0 0 17.42 20.68z" fill="#f7ad1e"/><path d="M414.63 412.11c-2.24.53-4.42 1.27-6.53 2-2.47.85-5.55 1.9-7.1 1.9h-.12c-85.26 1-171.7 1-257 0a113.37 113.37 0 0 1-15-4.25 81.76 81.76 0 0 1-9.75-6.65c-2.72-2.23-4.94-6-7.09-9.75-.42-.73-.84-1.45-1.26-2.15a38.33 38.33 0 0 1 .11-34.47l.08-.16a40.39 40.39 0 0 1 47.47-20.91l13.92 4.14-.78-10.4.28.19a96.82 96.82 0 0 1-.8-12.4c0-3 .15-6 .42-8.88q.12-1.19.27-2.38v-.34c0-.4.09-.8.14-1.19l-.11-.1a10 10 0 0 0-8.74-9.53h-.51A95.55 95.55 0 0 1 140 235a97.41 97.41 0 0 1 .82-12.58 10 10 0 1 0-19.83-2.6A117.3 117.3 0 0 0 120 235a115.55 115.55 0 0 0 31.16 79c0 .72-.07 1.45-.1 2.17-23.83-1.49-47.31 11.53-58 33.6a58.16 58.16 0 0 0 0 52.69l.37.67c.44.74.89 1.5 1.34 2.28 2.81 4.83 6.31 10.84 12 15.39l.25.19a91.15 91.15 0 0 0 13.53 8.94l.63.32.67.22a129.07 129.07 0 0 0 19.52 5.38l.76.13h.77c42.84.5 86 .75 129.12.75s86.25-.25 129.07-.75c4.85 0 9.45-1.59 13.5-3 1.73-.59 3.36-1.15 4.64-1.45a10 10 0 0 0-4.58-19.47zM168.05 291.92a10 10 0 0 0 9.32-6.37l.39-1a10 10 0 0 0-18.51-7.55l-.23.56-.28.69a10 10 0 0 0 9.31 13.64zm283.68 21.58a74.53 74.53 0 0 0-47.19-26.75 75.69 75.69 0 0 0-26.14.89 116.68 116.68 0 0 0-26.58-46.55c.11-2 .18-4 .18-6.09a116 116 0 0 0-210.56-67.16 10 10 0 1 0 16.3 11.59 96 96 0 0 1 173.57 44 122.34 122.34 0 0 0-17.16-9.78c-23.21-11.45-50.69-13.6-77.4-6-26.27 7.42-49 23.37-64.08 44.89A10 10 0 0 0 189 264c25.76-36.82 77.94-51.33 116.33-32.33l.21.1c29.13 13.56 50 39.83 55.72 70.27l2.21 11.69 11.13-4.19a55.34 55.34 0 0 1 27.11-3c27.54 3.86 48.68 29.57 47.12 57.3a10 10 0 0 0 9.42 10.55h.57a10 10 0 0 0 10-9.44 74.38 74.38 0 0 0-17.09-51.45zm4.94 67.14a10 10 0 0 0-13.37 4.6A54.46 54.46 0 0 1 431.77 401a10 10 0 0 0 13.75 14.53A74.41 74.41 0 0 0 461.28 394a10 10 0 0 0-4.6-13.36zM235 112a10 10 0 0 0 10-10V43a10 10 0 1 0-20 0v59a10 10 0 0 0 10 10zm123 123a10 10 0 0 0 10 10h59a10 10 0 0 0 0-20h-59a10 10 0 0 0-10 10zm-29-84a10 10 0 0 0 7.07-2.93l41.72-41.72a10 10 0 0 0-14.14-14.14L322 133.88a10 10 0 0 0 7 17.12zm-217 84a10 10 0 0 0-10-10H43a10 10 0 0 0 0 20h59a10 10 0 0 0 10-10zm16.26-43l-.16.39c-.13.31-.25.61-.37.92a10 10 0 1 0 18.66 7.2l.18-.45.27-.66a10 10 0 1 0-18.58-7.4zm5.62-44A10 10 0 0 0 148 133.88l-41.69-41.72a10 10 0 0 0-14.14 14.14z" fill="#02005c"/><metadata><rdf:RDF xmlns:rdf="http://www.w3.org/1999/02/22-rdf-syntax-ns#" xmlns:rdfs="http://www.w3.org/2000/01/rdf-schema#" xmlns:dc="http://purl.org/dc/elements/1.1/"><rdf:Description about="https://iconscout.com/legal#licenses" dc:title="cloudy" dc:description="cloudy" dc:publisher="Iconscout" dc:date="2017-09-07" dc:format="image/svg+xml" dc:language="en"><dc:creator><rdf:Bag><rdf:li>Paolo Valzania</rdf:li></rdf:Bag></dc:creator></rdf:Description></rdf:RDF></metadata></svg>