<?xml version="1.0" encoding="UTF-8" standalone="no"?><svg xmlns="http://www.w3.org/2000/svg" id="icone" viewBox="0 0 512 512"><title>flash-cloud</title><path d="M147.76 148.24l.49-1.21a10 10 0 0 1 18.52 7.56l-.41 1a10 10 0 1 1-18.6-7.36zm297.92 102.4a10 10 0 0 0-13.37 4.6A54.48 54.48 0 0 1 420.77 271a10 10 0 0 0 13.75 14.53A74.45 74.45 0 0 0 450.28 264a10 10 0 0 0-4.6-13.36zm-42 31.47c-2.24.53-4.42 1.27-6.53 2-2.47.85-5.55 1.9-7.1 1.9h-.12q-40.7.47-81.69.64l10-20.64h32.25a10 10 0 1 0 0-20H181a10 10 0 0 0 0 20h37.63l-3.22 20.64q-41.35-.17-82.49-.63a113.37 113.37 0 0 1-15-4.25 81.76 81.76 0 0 1-9.75-6.65c-2.72-2.23-4.94-6-7.09-9.75-.42-.73-.84-1.45-1.26-2.15a38.33 38.33 0 0 1 .11-34.47l.08-.16a40.4 40.4 0 0 1 47.47-20.91l13.92 4.14-1.09-14.48a97.46 97.46 0 0 1 .47-19.39 10 10 0 0 0-19.85-2.48 119.7 119.7 0 0 0-.84 10.72c-23.8-1.48-47.31 11.53-58 33.6a58.16 58.16 0 0 0 0 52.69l.37.67c.44.74.89 1.5 1.34 2.28 2.81 4.83 6.31 10.84 12 15.39l.2.18a91.15 91.15 0 0 0 13.53 8.94l.63.32.67.22a129.07 129.07 0 0 0 19.52 5.38l.76.13h.77q40.06.47 80.41.62l-.2 1.26a10 10 0 0 0 19.77 3.13l7-45h57.08l-34.19 70.86a10 10 0 0 0 9 14.35h22.87l-36.2 56.73L265.9 377a10 10 0 0 0-9.64-12.64h-32.73l.48-3.1a10 10 0 0 0-19.76-3.08L202 372.86a10 10 0 0 0 9.88 11.54h31.3l-22.47 82a10 10 0 0 0 18.07 8l81.57-127.81a10 10 0 0 0-8.43-15.38h-25.23l11.84-24.53q45.89-.15 91.54-.67c4.85 0 9.45-1.59 13.5-3 1.73-.59 3.36-1.15 4.64-1.45a10 10 0 1 0-4.58-19.47zm37.1-98.61a74.53 74.53 0 0 0-47.19-26.75 75.69 75.69 0 0 0-26.14.89c-9.39-32.12-32.79-59.29-64.26-74-23.21-11.45-50.69-13.6-77.4-6-26.27 7.42-49 23.37-64.08 44.89A10 10 0 1 0 178 134c25.8-36.85 78-51.36 116.37-32.36l.21.1c29.12 13.56 50 39.83 55.72 70.27l2.21 11.69 11.13-4.19a55.33 55.33 0 0 1 27.11-3c27.54 3.86 48.68 29.57 47.12 57.3a10 10 0 0 0 9.42 10.55h.57a10 10 0 0 0 10-9.44 74.38 74.38 0 0 0-17.13-51.42zM217.93 345.45a10 10 0 0 0 9.87-8.45l.09-.59a10 10 0 0 0-19.76-3.08l-.09.59a10 10 0 0 0 9.89 11.54z" fill="#02005c"/><path d="M419.87 284.51q-2.38 1.64-4.91 3.07a10.09 10.09 0 0 0-6.49-5.4c-3.73-1-7.53.61-11 1.8-2.65.9-5.33 2-8.16 2l-11.65.13-23.14.21c-15.44.13-30.87.18-46.31.29l2.18-4.52 4.5-9.33 2-4.08a14.9 14.9 0 0 1 1.17-2.41c.25-.33.06-.22.47-.29a14.63 14.63 0 0 1 2.19 0h27.49a15.26 15.26 0 0 0 6.07-.76 10 10 0 0 0-3.9-19.22H181.89a11 11 0 0 0-7 2.07 10 10 0 0 0 6.38 17.93h37.36l-.13.83-2 13.07-.89 5.73c0 .2 0 .85-.16 1a6.39 6.39 0 0 1-1.59 0h-5.57q-30.91-.14-61.82-.46l-7.76-.08a37.27 37.27 0 0 1-7.48-.41c-2.32-.5-4.61-1.14-6.88-1.83-1.22-.37-2.43-.76-3.64-1.16a18.62 18.62 0 0 1-3.34-1.22 57.62 57.62 0 0 1-5.65-3.72c-1-.75-2.06-1.51-3.08-2.28-.75-.56-1.84-1.29-2.07-2.22a31.92 31.92 0 0 1-.54-7.39 50 50 0 0 1 64.3-47.77q-.35-4.6-.3-9.22a106 106 0 0 1 121.66-103.72q4.59.68 9.11 1.77 2.33.56 4.62 1.22a7.6 7.6 0 0 1 2.21.88l1.88 1.27a100.29 100.29 0 0 1 25.43 25.3 95.07 95.07 0 0 1 14.5 32.41c1.22 5.2 2.09 10.49 3.08 15.73l3.92-1.48c3.5-1.32 7-2.77 10.56-3.85a55 55 0 0 1 5.67-1.39q1.63-.31 3.28-.52c.75-.1.65.13.87.81l.4 1.24a103.7 103.7 0 0 1 2.92 11.62 65.11 65.11 0 0 1 24.77-4.16q2.91.09 5.81.43 1.48.18 2.94.42a9.27 9.27 0 0 1 2.36.44 11.22 11.22 0 0 1 1.81 1.47c.69.57 1.36 1.16 2 1.77 1.23 1.14 2.41 2.33 3.54 3.57a57 57 0 0 1 10.87 17.47 53.67 53.67 0 0 1 3.69 20.53c-.06 3.19.05 6 2.15 8.56a10.06 10.06 0 0 0 6.53 3.64q-.39 1.89-.9 3.76-.24.88-.5 1.76c-.22.73-.25.46-.92.25a10 10 0 0 0-4.6-.34c-3.71.59-6.15 3-7.79 6.24a54.87 54.87 0 0 1-6.55 10 54.08 54.08 0 0 1-4.11 4.46 11.44 11.44 0 0 0-2.91 4.07 10.09 10.09 0 0 0 1 9.19 4.88 4.88 0 0 0 .54.82z" fill="#b6c4cf"/><path d="M293.63 351.2l-27.56 43.2h-4.93l4.76-17.4a10 10 0 0 0-9.64-12.64h-19.73L250.32 276h40.81l-29.36 60.86a10 10 0 0 0 9 14.35z" fill="#fc0"/><metadata><rdf:RDF xmlns:rdf="http://www.w3.org/1999/02/22-rdf-syntax-ns#" xmlns:rdfs="http://www.w3.org/2000/01/rdf-schema#" xmlns:dc="http://purl.org/dc/elements/1.1/"><rdf:Description about="https://iconscout.com/legal#licenses" dc:title="flash,cloud" dc:description="flash,cloud" dc:publisher="Iconscout" dc:date="2017-09-07" dc:format="image/svg+xml" dc:language="en"><dc:creator><rdf:Bag><rdf:li>Paolo Valzania</rdf:li></rdf:Bag></dc:creator></rdf:Description></rdf:RDF></metadata></svg>