<?xml version="1.0" encoding="UTF-8" standalone="no"?><svg xmlns="http://www.w3.org/2000/svg" id="icone" viewBox="0 0 512 512"><title>cloud</title><path d="M426.88 299.85c1-18.29-7.82-35.7-21.86-46.54a65 65 0 0 0-35.88 2.83 104.2 104.2 0 0 0-3.6-13.74 54.55 54.55 0 0 0-12.88 3.11l-11.13 4.19-2.22-11.7c-4.91-25.91-20.74-48.79-43.31-63.39A106 106 0 0 0 159 276q0 4.08.3 8.09a49.92 49.92 0 0 0-63.7 55.53 14.93 14.93 0 0 0 1.54 1.5 81.75 81.75 0 0 0 9.75 6.65 113.37 113.37 0 0 0 15 4.25c85.26 1 171.71 1 257 0h.11c1.55 0 4.63-1.05 7.1-1.9 2.11-.72 4.3-1.47 6.53-2a10 10 0 0 1 11.37 5.46q2.52-1.43 4.91-3.07a10 10 0 0 1 .9-13.54 54.47 54.47 0 0 0 11.53-15.74 10 10 0 0 1 12.76-4.86q.93-3 1.57-6a10 10 0 0 1-8.79-10.52z" fill="#b6c4cf"/><path d="M146.05 227.92a10 10 0 0 1-9.32-13.63l.28-.7.23-.56a10 10 0 0 1 18.52 7.56l-.39 1a10 10 0 0 1-9.32 6.33zM446.85 301a75.59 75.59 0 0 0-64.31-78.23 75.68 75.68 0 0 0-26.14.89c-9.39-32.12-32.79-59.29-64.26-74-23.21-11.45-50.69-13.6-77.4-6-26.27 7.42-49 23.37-64.08 44.89A10 10 0 0 0 167 200c25.76-36.82 77.94-51.33 116.33-32.33l.21.1c29.13 13.56 50 39.83 55.72 70.27l2.21 11.69 11.13-4.19a55.33 55.33 0 0 1 27.11-3c27.54 3.86 48.68 29.57 47.12 57.3a10 10 0 0 0 9.42 10.55h.57a10 10 0 0 0 10.03-9.39zm-23.33 50.5a74.4 74.4 0 0 0 15.76-21.5 10 10 0 1 0-18-8.77A54.47 54.47 0 0 1 409.77 337a10 10 0 0 0 13.75 14.53zM379.07 372c4.85 0 9.45-1.59 13.5-3 1.73-.59 3.36-1.15 4.64-1.45a10 10 0 0 0-4.58-19.47c-2.24.53-4.42 1.27-6.53 2-2.47.85-5.55 1.9-7.1 1.9h-.12c-85.26 1-171.7 1-257 0a113.37 113.37 0 0 1-15-4.25 81.75 81.75 0 0 1-9.75-6.65c-2.72-2.23-4.94-6-7.09-9.75-.42-.73-.84-1.45-1.26-2.15a38.33 38.33 0 0 1 .11-34.47l.08-.16a40.39 40.39 0 0 1 47.47-20.91l13.92 4.14-1.09-14.48a97.47 97.47 0 0 1 .47-19.39 10 10 0 0 0-19.85-2.48 119.7 119.7 0 0 0-.84 10.72c-23.83-1.49-47.31 11.53-58 33.6a58.16 58.16 0 0 0 0 52.69l.37.67c.44.74.89 1.5 1.34 2.28 2.81 4.83 6.31 10.84 12 15.39l.24.22a91.15 91.15 0 0 0 13.53 8.94l.63.32.67.22a129.07 129.07 0 0 0 19.52 5.38l.76.13h.77c42.84.5 86 .75 129.12.75s86.25-.24 129.07-.74z" fill="#02005c"/><metadata><rdf:RDF xmlns:rdf="http://www.w3.org/1999/02/22-rdf-syntax-ns#" xmlns:rdfs="http://www.w3.org/2000/01/rdf-schema#" xmlns:dc="http://purl.org/dc/elements/1.1/"><rdf:Description about="https://iconscout.com/legal#licenses" dc:title="cloud" dc:description="cloud" dc:publisher="Iconscout" dc:date="2017-09-07" dc:format="image/svg+xml" dc:language="en"><dc:creator><rdf:Bag><rdf:li>Paolo Valzania</rdf:li></rdf:Bag></dc:creator></rdf:Description></rdf:RDF></metadata></svg>