<?xml version="1.0" encoding="UTF-8"?>
<svg width="212px" height="28px" viewBox="0 0 212 28" version="1.1" xmlns="http://www.w3.org/2000/svg" xmlns:xlink="http://www.w3.org/1999/xlink">
    <!-- Generator: Sketch 43.2 (39069) - http://www.bohemiancoding.com/sketch -->
    <title>curved title</title>
    <desc>Created with Sketch.</desc>
    <defs></defs>
    <g id="Page-1" stroke="none" stroke-width="1" fill="none" fill-rule="evenodd">
        <g id="Desktop-HD-Copy" transform="translate(-534.000000, -60.000000)" fill="#39285E">
            <g id="curved-title" transform="translate(534.000000, 60.000000)">
                <polygon id="Fill-1" points="0 13.4135 3.2502 12.6444 9.3431 21.1089 11.152 10.7746 14.4023 10.0055 17.626 23.6293 14.512 24.3662 13.0844 18.3328 11.9235 24.9787 8.7316 25.734 4.9654 20.5006 6.3377 26.3004 3.2237 27.0373"></polygon>
                <path d="M22.2423,8.4501 L25.6401,7.7968 L33.9788,20.4501 L30.5811,21.1033 L29.2819,19.1128 L23.0756,20.3059 L22.5874,22.6401 L19.17,23.297 L22.2423,8.4501 Z M27.3619,16.2233 L24.7402,12.2264 L23.7677,16.9143 L27.3619,16.2233 Z" id="Fill-2"></path>
                <path d="M33.4531,6.3579 L39.583,5.428 C40.8222,5.2401 42.0193,5.3754 43.1745,5.834 C44.3297,6.2926 45.3009,7.005 46.088,7.9712 C46.8752,8.9374 47.3637,10.0467 47.5537,11.299 C47.7437,12.5514 47.606,13.7556 47.1409,14.9118 C46.6757,16.068 45.9595,17.0363 44.9922,17.8169 C44.025,18.5974 42.9219,19.0817 41.6827,19.2697 L35.5528,20.1995 L33.4531,6.3579 Z M41.2028,16.1059 C41.8751,16.0039 42.4758,15.7408 43.0048,15.3167 C43.5338,14.8925 43.9229,14.3683 44.1721,13.7438 C44.4213,13.1194 44.4939,12.4644 44.3899,11.7789 C44.2859,11.0935 44.0223,10.4895 43.5992,9.967 C43.176,9.4446 42.649,9.0593 42.0179,8.8111 C41.3869,8.5629 40.7353,8.4899 40.0629,8.5918 L37.0969,9.0418 L38.2367,16.5558 L41.2028,16.1059 Z" id="Fill-3"></path>
                <polygon id="Fill-4" points="49.2707 4.0287 60.1977 2.7637 60.5657 5.9424 52.8175 6.8394 53.082 9.1242 59.6382 8.3652 59.9832 11.3453 53.427 12.1043 53.6915 14.389 61.4397 13.492 61.8077 16.6708 50.8807 17.9358"></polygon>
                <path d="M70.275,1.8394 L78.0588,1.3361 C78.818,1.3004 79.533,1.4579 80.2037,1.8087 C80.8744,2.1595 81.4171,2.6488 81.8318,3.2767 C82.2465,3.9046 82.4784,4.5977 82.5275,5.3561 C82.586,6.2609 82.3794,7.096 81.9078,7.8613 C82.3053,8.2231 82.6235,8.6501 82.8625,9.1424 C83.1014,9.6347 83.2389,10.1602 83.2751,10.7191 C83.3241,11.4775 83.1834,12.1947 82.853,12.8708 C82.5226,13.5468 82.0474,14.102 81.4275,14.5362 C80.8076,14.9705 80.1188,15.2188 79.3613,15.2811 L71.1784,15.8102 L70.275,1.8394 Z M78.3074,6.7313 C78.6134,6.7115 78.8658,6.585 79.0645,6.3516 C79.2632,6.1183 79.3531,5.8553 79.3341,5.5626 C79.3143,5.2566 79.1911,5.004 78.9645,4.8049 C78.7378,4.6058 78.4715,4.5161 78.1654,4.5359 L73.6748,4.8262 L73.8168,7.0216 L78.3074,6.7313 Z M79.055,12.0942 C79.361,12.0744 79.6134,11.9479 79.8121,11.7146 C80.0108,11.4813 80.1007,11.2183 80.0817,10.9255 C80.0619,10.6195 79.9387,10.3669 79.7121,10.1678 C79.4854,9.9687 79.2191,9.879 78.913,9.8988 L74.0233,10.215 L74.1652,12.4104 L79.055,12.0942 Z" id="Fill-5"></path>
                <polygon id="Fill-6" points="89.4274 9.6769 83.2069 0.9911 87.0649 0.8678 90.9193 6.2675 94.4212 0.6328 98.2592 0.5102 92.6258 9.5747 92.7893 14.6921 89.5909 14.7943"></polygon>
                <path d="M118.028,17.2427 L118.002,18.3947 C116.902,18.6434 115.929,18.7581 115.083,18.739 C112.551,18.6817 110.544,17.8207 109.061,16.1558 C107.578,14.491 106.867,12.2983 106.929,9.5776 C106.99,6.857 107.855,4.5989 109.524,2.8035 C111.193,1.0081 113.234,0.1377 115.649,0.1923 C117.738,0.2396 119.417,1.0183 120.685,2.5285 C121.954,4.0387 122.561,5.9849 122.507,8.3671 C122.464,10.2481 122.122,11.7056 121.48,12.7395 C120.838,13.7735 119.96,14.2778 118.847,14.2527 C117.748,14.2278 116.968,13.5492 116.51,12.2168 C115.471,13.5153 114.431,14.1528 113.39,14.1292 C112.563,14.1105 111.914,13.7539 111.441,13.0595 C110.968,12.365 110.745,11.4385 110.771,10.2799 C110.81,8.5551 111.291,7.1594 112.214,6.0927 C113.137,5.0261 114.311,4.5089 115.736,4.5411 C116.244,4.5526 117.001,4.6283 118.007,4.7683 L117.893,9.7963 L117.883,10.7045 C117.862,11.6223 117.937,12.2491 118.109,12.5851 C118.28,12.9211 118.613,13.0947 119.108,13.1059 C120.54,13.1383 121.288,11.7161 121.353,8.8392 C121.407,6.4895 120.937,4.6637 119.944,3.3616 C118.951,2.0595 117.514,1.3872 115.633,1.3446 C113.517,1.2968 111.744,2.0527 110.312,3.6125 C108.879,5.1724 108.136,7.1596 108.081,9.5744 C108.027,11.9761 108.628,13.9026 109.885,15.3539 C111.141,16.8053 112.863,17.5557 115.05,17.6051 C115.922,17.6249 116.915,17.504 118.028,17.2427 Z M116.536,5.8779 C116.031,5.7493 115.639,5.6818 115.359,5.6755 C113.374,5.6306 112.347,7.1312 112.278,10.1773 C112.238,11.9281 112.739,12.8153 113.781,12.8389 C114.75,12.8608 115.633,12.1091 116.43,10.5838 L116.536,5.8779 Z" id="Fill-7"></path>
                <polygon id="Fill-8" points="125.344 0.9356 128.677 1.1468 132.039 11.0193 136.781 1.6604 140.114 1.8716 139.229 15.8436 136.035 15.6412 136.427 9.4536 133.38 15.473 130.107 15.2655 128.029 9.1619 127.652 15.11 124.458 14.9076"></polygon>
                <path d="M143.448,2.1698 L150.808,2.9289 C151.71,3.022 152.52,3.3299 153.237,3.8529 C153.953,4.3758 154.495,5.0415 154.86,5.85 C155.226,6.6584 155.362,7.5136 155.269,8.4155 C155.164,9.4367 154.787,10.3328 154.137,11.1036 C153.488,11.8744 152.686,12.4049 151.732,12.6952 L154.545,17.3885 L150.566,16.9782 L147.992,12.6915 L145.605,12.4453 L145.195,16.4242 L142.011,16.096 L143.448,2.1698 Z M150.111,9.6931 C150.615,9.745 151.057,9.6131 151.439,9.2972 C151.82,8.9813 152.035,8.5779 152.086,8.0872 C152.138,7.5832 152.009,7.141 151.7,6.7606 C151.391,6.3802 150.984,6.164 150.48,6.1121 L146.302,5.6812 L145.933,9.2622 L150.111,9.6931 Z" id="Fill-9"></path>
                <path d="M162.854,4.3742 L166.281,4.8501 L170.1,19.5149 L166.673,19.0389 L166.084,16.7361 L159.825,15.8667 L158.611,17.9193 L155.164,17.4406 L162.854,4.3742 Z M165.197,13.3822 L164.003,8.7538 L161.572,12.8787 L165.197,13.3822 Z" id="Fill-10"></path>
                <polygon id="Fill-11" points="174.109 6.0138 177.261 6.5682 175.39 17.2049 182.875 18.5214 182.32 21.6731 171.684 19.8022"></polygon>
                <polygon id="Fill-13" points="199.841 18.2582 195.828 10.101 199.874 11.0688 202.445 16.3107 207.11 12.7996 211.156 13.7674 203.887 19.226 207.899 27.3833 203.853 26.4155 201.282 21.1735 196.617 24.6846 192.571 23.7168"></polygon>
            </g>
        </g>
    </g>
</svg>