<?xml version="1.0" encoding="UTF-8" standalone="no"?><svg xmlns="http://www.w3.org/2000/svg" id="icone" viewBox="0 0 512 512"><title>moon</title><path d="M115.43 220.15a10 10 0 0 1-9.51-13.09q.55-1.7 1.14-3.38a10 10 0 1 1 18.88 6.6c-.34 1-.68 2-1 3a10 10 0 0 1-9.51 6.87zm220.37 173a10 10 0 0 0 0-17.31 138.44 138.44 0 0 1 0-239.77 10 10 0 0 0 0-17.31A158.46 158.46 0 0 0 118 179.23a10 10 0 1 0 17.49 9.71 138.5 138.5 0 0 1 175.3-60.3 158.36 158.36 0 0 0 0 254.73 138.65 138.65 0 0 1-54.22 11c-76.31 0-138.4-62.09-138.4-138.4a140.15 140.15 0 0 1 1.46-20.13A10 10 0 0 0 99.87 233a160.22 160.22 0 0 0-1.67 23c0 87.34 71.06 158.4 158.4 158.4a158.36 158.36 0 0 0 79.21-21.2z" fill="#02005c"/><path d="M136.2 324.19a148.44 148.44 0 0 1 171.62-193.27 158.36 158.36 0 0 0 3 252.45 138.43 138.43 0 0 1-174.62-59.18z" fill="#fff133"/><metadata><rdf:RDF xmlns:rdf="http://www.w3.org/1999/02/22-rdf-syntax-ns#" xmlns:rdfs="http://www.w3.org/2000/01/rdf-schema#" xmlns:dc="http://purl.org/dc/elements/1.1/"><rdf:Description about="https://iconscout.com/legal#licenses" dc:title="moon" dc:description="moon" dc:publisher="Iconscout" dc:date="2017-09-07" dc:format="image/svg+xml" dc:language="en"><dc:creator><rdf:Bag><rdf:li>Paolo Valzania</rdf:li></rdf:Bag></dc:creator></rdf:Description></rdf:RDF></metadata></svg>