<?xml version="1.0" encoding="UTF-8" standalone="no"?><svg xmlns="http://www.w3.org/2000/svg" id="icone" viewBox="0 0 512 512"><title>rain-cloud</title><path d="M437.88 233.85c1-18.29-7.82-35.7-21.86-46.54a65 65 0 0 0-35.88 2.83 104.22 104.22 0 0 0-3.6-13.74 54.59 54.59 0 0 0-12.88 3.11l-11.13 4.19-2.22-11.7c-4.91-25.91-20.74-48.79-43.31-63.39A106 106 0 0 0 170 210q0 4.08.3 8.09a49.92 49.92 0 0 0-63.7 55.53 14.92 14.92 0 0 0 1.54 1.49 81.76 81.76 0 0 0 9.75 6.65 113.37 113.37 0 0 0 15 4.25c85.26 1 171.71 1 257 0h.11c1.55 0 4.63-1.05 7.1-1.9 2.11-.72 4.3-1.47 6.53-2a10 10 0 0 1 11.37 5.47q2.52-1.43 4.91-3.07a10 10 0 0 1 .9-13.54 54.48 54.48 0 0 0 11.53-15.74 10 10 0 0 1 12.76-4.86q.93-3 1.57-6a10 10 0 0 1-8.79-10.52z" fill="#b6c4cf"/><path d="M327.65 343.58v.06a33 33 0 0 0-33 31.95 23 23 0 0 0 35.94-19 10.11 10.11 0 0 1 .06-1.08v-12zm-100.53-43.29V298a23.34 23.34 0 0 0-15.58 15.4 13.22 13.22 0 0 0 15.54-13.09zm6.15 105.79A42.26 42.26 0 0 0 191 448.34c0 1.17.06 2.32.16 3.46a32.23 32.23 0 0 0 54.36-23.46 10 10 0 0 1 .07-1.22V406h-12.33z" fill="#60c3e5"/><path d="M273.29 353.45a10 10 0 0 0 13-5.47l.15-.39a10 10 0 0 0-18.44-7.75l-.23.57a10 10 0 0 0 5.52 13.04z" fill="#02005c"/><path d="M340.68 313.58h-33a10 10 0 0 0-1.21.07 42.6 42.6 0 0 0-16.47 3.79 10 10 0 0 0 8.24 18.23 22.79 22.79 0 0 1 9.45-2 10 10 0 0 0 1.07-.06h22v22a10.11 10.11 0 0 0-.06 1.08 23 23 0 0 1-44.7 7.82 10 10 0 1 0-18.79 6.86 43 43 0 0 0 83.35-13.52 10 10 0 0 0 .08-1.23v-33a10 10 0 0 0-9.96-10.04z" fill="#02005c"/><path d="M170.27 422.14a10 10 0 0 0 13-5.62l.16-.42a10 10 0 0 0-18.61-7.33l-.15.4a10 10 0 0 0 5.6 12.97z" fill="#02005c"/><path d="M255.59 376h-42.33a51.8 51.8 0 0 0-30.09 9.59 10 10 0 0 0 11.56 16.32 31.9 31.9 0 0 1 18.53-5.91h32.34v31.12a10 10 0 0 0-.07 1.22 32.27 32.27 0 0 1-63.82 6.76 10 10 0 1 0-19.56 4.17 52.27 52.27 0 0 0 103.36-9.58 10.1 10.1 0 0 0 .09-1.35V386a10 10 0 0 0-10.01-10z" fill="#02005c"/><path d="M403.63 282.11c-2.24.53-4.42 1.27-6.53 2-2.47.85-5.55 1.9-7.1 1.9h-.12c-47.34.55-95.05.78-142.72.72V277a10 10 0 0 0-10-10h-23.33a10 10 0 0 0-1.08.06 33.34 33.34 0 0 0-29.19 19.45q-25.36-.18-50.63-.46a113.37 113.37 0 0 1-15-4.25 81.76 81.76 0 0 1-9.75-6.65c-2.72-2.23-4.94-6-7.09-9.75-.42-.73-.84-1.45-1.26-2.15a38.33 38.33 0 0 1 .11-34.47l.08-.16a40.4 40.4 0 0 1 47.47-20.91l13.92 4.14-1.09-14.48a97.46 97.46 0 0 1 .47-19.39 10 10 0 0 0-19.85-2.48 119.7 119.7 0 0 0-.84 10.72c-23.8-1.48-47.31 11.53-58 33.6a58.16 58.16 0 0 0 0 52.69l.37.67c.44.74.89 1.5 1.34 2.28 2.81 4.83 6.31 10.84 12 15.39l.19.15a91.15 91.15 0 0 0 13.53 8.94l.63.32.67.22a129.07 129.07 0 0 0 19.52 5.38l.76.13h.77q24.55.29 49.23.45a33.28 33.28 0 0 0 65.37.28h14.51c43.12 0 86.25-.25 129.07-.75 4.85 0 9.45-1.59 13.5-3 1.73-.59 3.36-1.15 4.64-1.45a10 10 0 1 0-4.58-19.47zm-176.47 17.27v.91A13.29 13.29 0 1 1 213.83 287h13.33z" fill="#02005c"/><path d="M153.38 161.22a10 10 0 0 0 13-5.62l.41-1a10 10 0 0 0-18.54-7.6l-.49 1.21a10 10 0 0 0 5.62 13.01z" fill="#02005c"/><path d="M445.68 250.64a10 10 0 0 0-13.37 4.6A54.48 54.48 0 0 1 420.77 271a10 10 0 0 0 13.75 14.53A74.45 74.45 0 0 0 450.28 264a10 10 0 0 0-4.6-13.36z" fill="#02005c"/><path d="M440.73 183.5a74.53 74.53 0 0 0-47.19-26.75 75.69 75.69 0 0 0-26.14.89c-9.39-32.12-32.79-59.29-64.26-74-23.21-11.45-50.69-13.6-77.4-6-26.27 7.42-49 23.37-64.08 44.89A10 10 0 1 0 178 134c25.8-36.85 78-51.36 116.37-32.36l.21.1c29.12 13.56 50 39.83 55.72 70.27l2.21 11.69 11.13-4.19a55.33 55.33 0 0 1 27.11-3c27.54 3.86 48.68 29.57 47.12 57.3a10 10 0 0 0 9.42 10.55h.57a10 10 0 0 0 10-9.44 74.38 74.38 0 0 0-17.13-51.42z" fill="#02005c"/><metadata><rdf:RDF xmlns:rdf="http://www.w3.org/1999/02/22-rdf-syntax-ns#" xmlns:rdfs="http://www.w3.org/2000/01/rdf-schema#" xmlns:dc="http://purl.org/dc/elements/1.1/"><rdf:Description about="https://iconscout.com/legal#licenses" dc:title="rain,cloud" dc:description="rain,cloud" dc:publisher="Iconscout" dc:date="2017-09-07" dc:format="image/svg+xml" dc:language="en"><dc:creator><rdf:Bag><rdf:li>Paolo Valzania</rdf:li></rdf:Bag></dc:creator></rdf:Description></rdf:RDF></metadata></svg>