<?xml version="1.0" encoding="UTF-8" standalone="no"?><svg xmlns="http://www.w3.org/2000/svg" id="icone" viewBox="0 0 512 512"><title>rainbow</title><path d="M104.71 322.16a10 10 0 0 1-9.43-13.32l.5-1.4a10 10 0 0 1 18.84 6.71l-.48 1.33a10 10 0 0 1-9.43 6.68zm178.64 103.37c.11-38.32 14.84-74.09 41.47-100.71s62.39-41.36 100.71-41.47a10 10 0 0 0 10-10V85.5a10 10 0 0 0-10-10H425a349.57 349.57 0 0 0-319.64 207.9 10 10 0 0 0 18.29 8.1A329 329 0 0 1 415.5 95.63v168A161.4 161.4 0 0 0 263.67 415.5h-168a329.85 329.85 0 0 1 11.27-76.77 10 10 0 0 0-19.34-5.23A350.5 350.5 0 0 0 75.5 425v.47a10 10 0 0 0 10 10h187.85a10 10 0 0 0 10-9.94z" fill="#02005c"/><path d="M204.52 204.52a337.65 337.65 0 0 1 211-98.3v40.17A300 300 0 0 0 146.38 415.5h-40.17a337.65 337.65 0 0 1 98.31-210.98z" fill="#eb4b28"/><path d="M231.09 231.09a300.34 300.34 0 0 1 184.41-87.15v40.19A262.58 262.58 0 0 0 184.13 415.5h-40.19a300.34 300.34 0 0 1 87.15-184.41z" fill="#fff133"/><path d="M257.66 257.66a263.08 263.08 0 0 1 157.84-76V222A225 225 0 0 0 222 415.5h-40.3a263.08 263.08 0 0 1 75.96-157.84z" fill="#60c3e5"/><path d="M310.67 310.67a161.39 161.39 0 0 0-47 104.83h-44.14a227.49 227.49 0 0 1 196-196v44.14a161.38 161.38 0 0 0-104.86 47.03z" fill="#1740b5"/><metadata><rdf:RDF xmlns:rdf="http://www.w3.org/1999/02/22-rdf-syntax-ns#" xmlns:rdfs="http://www.w3.org/2000/01/rdf-schema#" xmlns:dc="http://purl.org/dc/elements/1.1/"><rdf:Description about="https://iconscout.com/legal#licenses" dc:title="rainbow" dc:description="rainbow" dc:publisher="Iconscout" dc:date="2017-09-07" dc:format="image/svg+xml" dc:language="en"><dc:creator><rdf:Bag><rdf:li>Paolo Valzania</rdf:li></rdf:Bag></dc:creator></rdf:Description></rdf:RDF></metadata></svg>