<?xml version="1.0" encoding="UTF-8"?>
<svg width="33px" height="37px" viewBox="0 0 33 37" version="1.1" xmlns="http://www.w3.org/2000/svg" xmlns:xlink="http://www.w3.org/1999/xlink">
    <!-- Generator: Sketch 43.2 (39069) - http://www.bohemiancoding.com/sketch -->
    <title>rain-weather-forecast-34038aaafe0e5a8d</title>
    <desc>Created with Sketch.</desc>
    <defs></defs>
    <g id="Page-2" stroke="none" stroke-width="1" fill="none" fill-rule="evenodd">
        <g id="Desktop-HD" transform="translate(-887.000000, -474.000000)" fill-rule="nonzero" fill="#39285E">
            <g id="rain-weather-forecast-34038aaafe0e5a8d" transform="translate(887.000000, 474.000000)">
                <path d="M0.646509434,25.265419 L0.646509434,25.2571508 C0.654811321,25.2344134 0.663113208,25.211676 0.67245283,25.1889385 C0.810741577,24.8462829 1.12207601,24.6031325 1.48917946,24.5510797 C1.8562829,24.4990268 2.22338362,24.6459797 2.45219832,24.9365825 C2.68101303,25.2271852 2.73677931,25.6172885 2.59849057,25.9599441 L2.59849057,25.9692458 L2.57773585,26.0229888 C2.44185697,26.3665676 2.13225486,26.6118514 1.76555364,26.6664443 C1.39885242,26.7210372 1.03076274,26.5766452 0.799940413,26.2876594 C0.569118089,25.9986736 0.51063053,25.6089977 0.646509434,25.265419 L0.646509434,25.265419 Z M16.4398113,19.7567598 L8.75122642,19.7567598 C6.25620515,19.7626206 3.88300588,20.8317323 2.23113208,22.6940223 C1.85086318,23.1221202 1.89105196,23.7761784 2.32089623,24.1549022 C2.75074049,24.5336261 3.40746696,24.4936006 3.78773585,24.0655028 C5.04547353,22.6456413 6.85319317,21.8297171 8.75433962,21.8237989 L15.4051887,21.8237989 L15.4051887,28.2812291 C15.3962893,28.3359058 15.3917782,28.3912018 15.3916981,28.4465922 C15.4775558,30.864014 14.231596,33.1353141 12.1426503,34.3693858 C10.0537046,35.6034575 7.45497469,35.6034575 5.36602895,34.3693858 C3.27708322,33.1353141 2.03112344,30.864014 2.11698113,28.4465922 C2.11698113,28.3701117 2.11698113,28.2936313 2.12216981,28.2181844 L2.12216981,28.2026816 C2.14251577,27.6318845 1.69439927,27.1527354 1.12127358,27.1324721 C0.548147901,27.1122088 0.067044075,27.5585046 0.0466981132,28.1293017 L0.0466981132,28.1437709 C0.0466981132,28.2471229 0.0394339623,28.3453073 0.0394339623,28.4465922 C0.146564611,33.1286753 3.96321741,36.8822267 8.66537798,36.9299219 C13.3675386,36.9776171 17.2601607,33.3022629 17.4630189,28.623324 C17.4728761,28.5649292 17.4777363,28.5058062 17.4775472,28.4465922 L17.4775472,20.7892458 C17.4775473,20.5149602 17.3680723,20.2519237 17.1732346,20.0580715 C16.9783968,19.8642192 16.714178,19.755452 16.4387736,19.7557263 L16.4398113,19.7567598 Z M8.17009434,4.71594972 C8.42659954,4.81550655 8.71231367,4.80947543 8.96435298,4.69918378 C9.21639229,4.58889212 9.4141001,4.38337923 9.51396226,4.12787709 L9.53367925,4.07620112 C9.74131619,3.55010632 9.48604398,2.95547867 8.96069566,2.74150088 C8.43534734,2.5275231 7.83485439,2.77359204 7.61283019,3.29382682 L7.58481132,3.36513966 L7.58481132,3.37650838 C7.37540184,3.90734335 7.63733372,4.50678392 8.17009434,4.71594972 L8.17009434,4.71594972 Z M16.7220755,0.0341061453 L12.4860377,0.0341061453 C12.4402205,0.0341703716 12.3944586,0.037277826 12.3490566,0.0434078212 C11.3964586,0.0675343266 10.468417,0.349424481 9.66443396,0.858854749 C9.35152323,1.05695253 9.16849685,1.40626006 9.18429907,1.77519657 C9.2001013,2.14413308 9.4123314,2.47664834 9.74104435,2.64748707 C10.0697573,2.8183258 10.4650138,2.80153354 10.7779245,2.60343575 C11.2884021,2.27991539 11.8809688,2.10817406 12.4860377,2.10837989 C12.5273095,2.10843097 12.5685472,2.10601508 12.6095283,2.10114525 L15.6853774,2.10114525 L15.6853774,5.16759777 C15.6805025,5.2084137 15.6780768,5.24948293 15.6781132,5.29058659 C15.678289,6.89689526 14.4753152,8.25096849 12.8744373,8.44641801 C11.2735595,8.64186754 9.77780308,7.61727947 9.38839623,6.05849162 C9.24286344,5.51349448 8.68552651,5.18529832 8.13590905,5.32094586 C7.58629158,5.45659341 7.24732131,6.00600138 7.37415094,6.55561453 C8.0104674,9.10217244 10.4382475,10.7887256 13.0576099,10.5038533 C15.6769723,10.2189811 17.6820463,8.05032708 17.7515094,5.42701117 C17.7577075,5.38145157 17.7608278,5.33552896 17.7608491,5.28955307 L17.7608491,1.0676257 C17.7608491,0.496828611 17.2962389,0.0341061453 16.7231132,0.0341061453 L16.7220755,0.0341061453 Z M19.9504717,14.1860894 C20.4803165,14.3990993 21.0833733,14.1454585 21.2995283,13.6186872 L21.320283,13.5649441 L21.3265094,13.5494413 C21.5485956,13.0231664 21.3002615,12.4172314 20.7718396,12.1960475 C20.2434177,11.9748636 19.6350107,12.2221888 19.4129245,12.7484637 C19.4025472,12.7732682 19.3921698,12.7980726 19.3828302,12.8239106 L19.3766038,12.8404469 C19.2734595,13.0946744 19.2759794,13.3793031 19.3836089,13.6316796 C19.4912384,13.8840561 19.6951549,14.0834929 19.9504717,14.1860894 Z M31.8916981,8.46659218 L25.8904717,8.46659218 C25.8387952,8.46546253 25.787107,8.46822646 25.7358491,8.47486034 C24.0489691,8.51135297 22.4318663,9.15241024 21.1812264,10.280419 C20.8955649,10.5252067 20.7655995,10.9049884 20.8417012,11.2725714 C20.9178028,11.6401544 21.1880094,11.9377594 21.5475963,12.0500429 C21.9071832,12.1623264 22.2996281,12.071639 22.5728302,11.8131285 C23.4825354,10.992656 24.6662947,10.5387604 25.8935849,10.5398324 C25.9421969,10.539808 25.990746,10.5363543 26.0388679,10.5294972 L30.8560377,10.5294972 L30.8560377,15.3260615 C30.849124,15.3746781 30.8456563,15.4237194 30.8456604,15.4728212 C30.8523959,18.1551348 28.70545,20.3510215 26.0129679,20.4156777 C23.3204858,20.4803338 21.0697721,18.3900506 20.9466981,15.7105307 C20.9290876,15.3412898 20.7150235,15.0094539 20.3851417,14.8400226 C20.0552598,14.6705913 19.6596772,14.6893051 19.3474058,14.8891148 C19.0351345,15.0889245 18.8536159,15.4394741 18.8712264,15.8087151 C19.0485493,19.5768674 22.192471,22.527143 25.9798465,22.479488 C29.767222,22.4318331 32.8353011,19.4033945 32.9169811,15.6319832 C32.9251931,15.5796693 32.9293563,15.5268041 32.929434,15.4738547 L32.929434,9.50011173 C32.929434,8.92931464 32.4648238,8.46659218 31.8916981,8.46659218 L31.8916981,8.46659218 Z" id="Shape"></path>
                <path d="M28.3742852,21.1894517 C26.8913959,21.7216472 25.2326521,21.2706801 24.2269548,20.0619058 C23.9833814,18.7465174 24.3394635,17.3913578 25.1987718,16.3634128 C26.0580801,15.3354678 27.3316998,14.7411016 28.6747265,14.7412723 L30.8539623,14.7334707 L30.8539623,17.5740025 C30.8486695,17.6112164 30.8460517,17.6487591 30.8461289,17.6863444 C30.8457997,19.2561724 29.8571745,20.6572563 28.3742852,21.1894517 Z M14.7336948,4.95768285 C12.7555374,4.95768285 11.1519239,6.55478087 11.1519239,8.52490113 C11.1519239,8.60804287 11.1519239,8.68943426 11.1615901,8.77082564 C11.9542925,9.48486689 13.0949363,9.66683893 14.0719208,9.23512383 C15.0489053,8.80340872 15.6788553,7.83903734 15.6792261,6.77454868 C15.6791953,6.73974242 15.6812494,6.70496533 15.6853774,6.67040271 L15.6853774,4.95155661 L14.7336948,4.95155661 L14.7336948,4.95768285 Z M11.2332539,35.5486159 C11.2332539,35.5486159 15.395001,33.1083912 15.395001,32.0619102 L15.4051887,27.8441954 L11.9476624,27.8441954 C10.172532,27.855387 8.49565749,28.6660894 7.39675847,30.0545235 C6.29785945,31.4429575 5.89799186,33.2561718 6.31154965,34.9754426 C7.25188717,36.281615 8.4075268,36.0937273 10.0213016,36.0942078 L11.2332539,35.5486159 Z" id="Shape"></path>
            </g>
        </g>
    </g>
</svg>