<?xml version="1.0" encoding="UTF-8" standalone="no"?><svg xmlns="http://www.w3.org/2000/svg" id="icone" viewBox="0 0 512 512"><title>rain</title><path d="M103.23 321.46v-.08c.08-.22.16-.44.25-.66a10 10 0 0 1 18.56 7.46v.09l-.2.52a10 10 0 1 1-18.61-7.33zm152.19-53.3h-74.09a84.1 84.1 0 0 0-62.83 28.42 10 10 0 0 0 15 13.27 64.09 64.09 0 0 1 47.86-21.69h64.09v62.48a10.09 10.09 0 0 0-.13 1.6 64 64 0 1 1-127.92 0c0-.74 0-1.48.05-2.21v-.15a10 10 0 1 0-20-.71v.14c0 1-.07 1.95-.07 2.93a84 84 0 0 0 167.9 1.71 10.12 10.12 0 0 0 .14-1.71v-74.09a10 10 0 0 0-10.01-10zm-79.69-145.53a10 10 0 0 0 12.95-5.69l.19-.5a10 10 0 0 0-18.51-7.57l-.27.69v.11a10 10 0 0 0 5.64 12.96zm82.41-45.3h-40.82a9.93 9.93 0 0 0-1.32.09 50.59 50.59 0 0 0-25.87 7.89 10 10 0 1 0 10.73 16.88 30.64 30.64 0 0 1 16.46-4.79 9.94 9.94 0 0 0 1.19-.07h29.64V127a10 10 0 0 0-.07 1.19 30.76 30.76 0 0 1-60.61 7.43 10 10 0 0 0-19.41 4.81 50.76 50.76 0 0 0 100-10.92 9.94 9.94 0 0 0 .09-1.33V87.33a10 10 0 0 0-10-10zm31.11 136.93a10 10 0 0 0 13-5.49l.2-.52.06-.15a10 10 0 0 0-18.44-7.75c-.1.24-.2.48-.29.73l-.06.16a10 10 0 0 0 5.53 13.02zm115.07-55.34h-57.83a9.88 9.88 0 0 0-1.49.08 67.57 67.57 0 0 0-43.89 17.47 10 10 0 1 0 13.41 14.83 47.61 47.61 0 0 1 32-12.32 9.92 9.92 0 0 0 1.4-.1h46.42v46.41a10.12 10.12 0 0 0-.1 1.42 47.72 47.72 0 0 1-95.39 2.3 10 10 0 0 0-20 .95 67.72 67.72 0 0 0 135.35-1.71 10 10 0 0 0 .12-1.53v-57.8a10 10 0 0 0-10-10z" fill="#02005c"/><path d="M394.22 226.75a47.74 47.74 0 0 1-84.5 30.45A57.73 57.73 0 0 1 366.5 189v-.1h27.82v36.41a10.12 10.12 0 0 0-.1 1.44zM237.32 107.4a40.76 40.76 0 0 0-40.76 40.76c0 .95 0 1.88.11 2.81a30.77 30.77 0 0 0 51.41-22.81 10 10 0 0 1 .07-1.19v-19.64h-10.83zm-56 308.8a64 64 0 0 0 64-64 10.09 10.09 0 0 1 .13-1.6v-52.44h-44.12v.13a74 74 0 0 0-71.92 91.24 63.91 63.91 0 0 0 51.92 26.67z" fill="#60c3e5"/><metadata><rdf:RDF xmlns:rdf="http://www.w3.org/1999/02/22-rdf-syntax-ns#" xmlns:rdfs="http://www.w3.org/2000/01/rdf-schema#" xmlns:dc="http://purl.org/dc/elements/1.1/"><rdf:Description about="https://iconscout.com/legal#licenses" dc:title="rain" dc:description="rain" dc:publisher="Iconscout" dc:date="2017-09-07" dc:format="image/svg+xml" dc:language="en"><dc:creator><rdf:Bag><rdf:li>Paolo Valzania</rdf:li></rdf:Bag></dc:creator></rdf:Description></rdf:RDF></metadata></svg>