<?xml version="1.0" encoding="UTF-8" standalone="no"?><svg xmlns="http://www.w3.org/2000/svg" id="icone" viewBox="0 0 512 512"><title>snow</title><path d="M457.7 256a10 10 0 0 1-10 10h-49.21l27.93 27.93a10 10 0 0 1-14.14 14.14L370.21 266H351.5v21.5a10 10 0 0 1-20 0V266h-57.92c8.85 15.41 17.77 31 26.41 46.19l2.4 4.21L321 305.64A10 10 0 1 1 331 323l-18.7 10.77 9.41 16.45 57.75 15.47a10 10 0 1 1-5.18 19.31l-38.5-10.31.21.36a10 10 0 0 1-17.28 10.07l-10.13 37.81a10 10 0 0 1-19.32-5.18l15.32-57.19q-4.83-8.42-9.62-16.81l-18.51 10.68a10 10 0 0 1-10-17.32l18.59-10.74-2.45-4.3c-8.67-15.2-17.61-30.89-26.48-46.33l-29.22 50.61 18.62 10.75a10 10 0 1 1-10 17.32l-18.62-10.75-9.58 16.59 15.4 57.47a10 10 0 1 1-19.32 5.18l-10.22-38.15L168.81 427a10 10 0 0 1-17.32-10l24.38-42.22L137.72 385a10 10 0 1 1-5.18-19.32L190 350.3l9.58-16.59L181 323a10 10 0 1 1 10-17.32l18.62 10.75L238.68 266H180.5v21.5a10 10 0 0 1-20 0V266h-19.16l-42.07 42.07a10 10 0 0 1-14.14-14.14L113.06 266H64.3a10 10 0 1 1 0-20h48.76l-27.93-27.93a10 10 0 0 1 14.14-14.14L141.34 246h19.16v-21.5a10 10 0 0 1 20 0V246h58.43l-1.7-2.92A10 10 0 0 1 254.52 233l1.61 2.76 29-50.17-18.62-10.75a10 10 0 0 1 10-17.32l18.62 10.75 9.35-16.2L289 94.62a10 10 0 0 1 19.32-5.18l10.22 38.15L343.19 85a10 10 0 1 1 17.32 10l-24.61 42.6 38.15-10.22a10 10 0 1 1 5.18 19.32l-57.47 15.4-9.35 16.2L331 189a10 10 0 1 1-10 17.32l-18.62-10.75L273.32 246h58.18v-21.5a10 10 0 0 1 20 0V246h18.7l42.07-42.07a10 10 0 0 1 14.14 14.14L398.49 246h49.21a10 10 0 0 1 10 10zm-217.78-47.88a10 10 0 0 0-17.22 10.18c.38.64.44.74.49.82l.26.44a10 10 0 1 0 17.22-10.17l-.5-.83zm109.3 189.7a10 10 0 0 0-17.22 10.1q5.62 9.61 11.29 19.19a10 10 0 1 0 17.21-10.19q-5.69-9.53-11.28-19.09zM132.77 146.7L190 162q4.7 8.17 9.47 16.35L181 189a10 10 0 1 0 10 17.32l19.29-11.13a10 10 0 0 0 16-9.24l19.28-11.13a10 10 0 0 0-10-17.32l-18.77 10.83q-4.68-8-9.28-16L223 94.62a10 10 0 0 0-19.32-5.18l-10.25 38.24c-8-14.1-16.3-28.64-24.62-42.78a10 10 0 1 0-17.23 10.15c8.25 14 16.49 28.49 24.48 42.52l-38.07-10.2a10 10 0 1 0-5.18 19.32z" fill="#02005c"/><metadata><rdf:RDF xmlns:rdf="http://www.w3.org/1999/02/22-rdf-syntax-ns#" xmlns:rdfs="http://www.w3.org/2000/01/rdf-schema#" xmlns:dc="http://purl.org/dc/elements/1.1/"><rdf:Description about="https://iconscout.com/legal#licenses" dc:title="snow" dc:description="snow" dc:publisher="Iconscout" dc:date="2017-09-07" dc:format="image/svg+xml" dc:language="en"><dc:creator><rdf:Bag><rdf:li>Paolo Valzania</rdf:li></rdf:Bag></dc:creator></rdf:Description></rdf:RDF></metadata></svg>