<?xml version="1.0" encoding="UTF-8" standalone="no"?><svg xmlns="http://www.w3.org/2000/svg" id="icone" viewBox="0 0 512 512"><title>snow-cloud</title><path d="M385.31 385.07a10 10 0 0 1-10 10h-18.68l9.37 16.18a10 10 0 1 1-17.32 10l-9.34-16.18-9.34 16.18a10 10 0 1 1-17.32-10l9.32-16.18h-18.69a10 10 0 0 1 0-20H322l-9.34-16.18a10 10 0 0 1 17.32-10l9.34 16.18 9.34-16.18a10 10 0 0 1 17.32 10l-9.34 16.18h18.68a10 10 0 0 1 9.99 10zM256.3 416h-32.68L240 387.66a10 10 0 1 0-17.32-10L206.3 406 190 377.66a10 10 0 1 0-17.32 10L189 416h-32.7a10 10 0 1 0 0 20H189l-16.34 28.3a10 10 0 1 0 17.32 10L206.3 446l16.34 28.3a10 10 0 1 0 17.32-10L223.62 436h32.68a10 10 0 0 0 0-20zM153.43 161.24a10 10 0 0 0 12.95-5.69l.39-1a10 10 0 0 0-18.52-7.55l-.23.56-.28.7a10 10 0 0 0 5.69 12.98zm287.3 22.26a74.53 74.53 0 0 0-47.19-26.75 75.69 75.69 0 0 0-26.14.89c-9.39-32.12-32.79-59.29-64.26-74-23.21-11.45-50.69-13.6-77.4-6-26.27 7.42-49 23.37-64.08 44.89A10 10 0 0 0 178 134c25.8-36.85 78-51.35 116.37-32.36l.21.1c29.13 13.56 50 39.83 55.72 70.27l2.21 11.69 11.13-4.19a55.33 55.33 0 0 1 27.11-3c27.54 3.86 48.68 29.57 47.12 57.3a10 10 0 0 0 9.42 10.55h.57a10 10 0 0 0 10-9.44 74.38 74.38 0 0 0-17.13-51.42zm4.94 67.14a10 10 0 0 0-13.37 4.6A54.47 54.47 0 0 1 420.77 271a10 10 0 0 0 13.75 14.53A74.4 74.4 0 0 0 450.28 264a10 10 0 0 0-4.6-13.36zm-42 31.47c-2.24.53-4.42 1.27-6.53 2-2.47.85-5.55 1.9-7.1 1.9h-.12c-40.65.47-81.58.71-122.51.74a10 10 0 0 0-5.93 0h-26.17a10 10 0 0 0-5.69 0q-48.45-.14-96.66-.69a113.37 113.37 0 0 1-15-4.25 81.75 81.75 0 0 1-9.75-6.65c-2.72-2.23-4.94-6-7.09-9.75-.42-.73-.84-1.45-1.26-2.15a38.33 38.33 0 0 1 .11-34.47l.08-.16a40.4 40.4 0 0 1 47.47-20.91l13.92 4.14-1.09-14.48a97.47 97.47 0 0 1 .47-19.39 10 10 0 0 0-19.85-2.48 119.7 119.7 0 0 0-.84 10.72c-23.84-1.49-47.31 11.53-58 33.6a58.16 58.16 0 0 0 0 52.69l.37.67c.44.74.89 1.5 1.34 2.28 2.81 4.83 6.31 10.84 12 15.39l.16.14a91.15 91.15 0 0 0 13.53 8.94l.63.32.67.22a129.07 129.07 0 0 0 19.52 5.38l.76.13h.77q47.31.55 95 .69l4.22 7.3h-14.69a10 10 0 0 0 0 20h14.68l-7.34 12.71a10 10 0 1 0 17.32 10l7.34-12.69 7.34 12.71a10 10 0 0 0 17.32-10L265.73 334h14.68a10 10 0 0 0 0-20h-14.68l4.19-7.26c40.15 0 80.28-.27 120.14-.73 4.85 0 9.45-1.59 13.5-3 1.73-.59 3.36-1.15 4.64-1.45a10 10 0 0 0-4.58-19.47z" fill="#02005c"/><path d="M437.88 233.85c1-18.29-7.82-35.7-21.86-46.54a65 65 0 0 0-35.88 2.83 104.21 104.21 0 0 0-3.6-13.74 54.57 54.57 0 0 0-12.88 3.11l-11.13 4.19-2.22-11.7c-4.91-25.91-20.74-48.79-43.31-63.39A106 106 0 0 0 170 210q0 4.08.3 8.09a49.92 49.92 0 0 0-63.7 55.53 14.93 14.93 0 0 0 1.54 1.5 81.75 81.75 0 0 0 9.75 6.65 113.37 113.37 0 0 0 15 4.25q48.14.56 96.66.69a10 10 0 0 1 5.69 0h26.17a10 10 0 0 1 5.93 0c40.94 0 81.86-.26 122.51-.74h.15c1.55 0 4.63-1.05 7.1-1.9 2.11-.72 4.3-1.47 6.53-2a10 10 0 0 1 11.37 5.51q2.52-1.43 4.91-3.07a10 10 0 0 1 .9-13.54 54.47 54.47 0 0 0 11.53-15.74 10 10 0 0 1 12.76-4.86q.93-3 1.57-6a10 10 0 0 1-8.79-10.52z" fill="#b6c4cf"/><metadata><rdf:RDF xmlns:rdf="http://www.w3.org/1999/02/22-rdf-syntax-ns#" xmlns:rdfs="http://www.w3.org/2000/01/rdf-schema#" xmlns:dc="http://purl.org/dc/elements/1.1/"><rdf:Description about="https://iconscout.com/legal#licenses" dc:title="snow,cloud" dc:description="snow,cloud" dc:publisher="Iconscout" dc:date="2017-09-07" dc:format="image/svg+xml" dc:language="en"><dc:creator><rdf:Bag><rdf:li>Paolo Valzania</rdf:li></rdf:Bag></dc:creator></rdf:Description></rdf:RDF></metadata></svg>