<?xml version="1.0" encoding="UTF-8"?>
<svg width="404px" height="404px" viewBox="0 0 404 404" version="1.1" xmlns="http://www.w3.org/2000/svg" xmlns:xlink="http://www.w3.org/1999/xlink">
    <!-- Generator: Sketch 43.2 (39069) - http://www.bohemiancoding.com/sketch -->
    <title>sun</title>
    <desc>Created with Sketch.</desc>
    <defs></defs>
    <g id="Page-1" stroke="none" stroke-width="1" fill="none" fill-rule="evenodd">
        <g id="sun" fill-rule="nonzero">
            <path d="M318,202 C318,266.065031 266.065031,318 202,318 C137.934969,318 86,266.065031 86,202 C86.0045151,196.923692 86.3385507,191.853031 87,186.82 C87.4473508,183.262813 89.76476,180.217305 93.0739147,178.837741 C96.3830694,177.458178 100.177538,177.955688 103.019193,180.141711 C105.860848,182.327735 107.314803,185.867724 106.83,189.42 C106.281976,193.591011 106.004729,197.793143 106,202 C105.992096,249.321312 140.468657,289.590007 187.226254,296.872434 C233.983851,304.154862 279.073896,276.278549 293.457717,231.196265 C307.841537,186.11398 287.228193,137.274538 244.892992,116.13128 C202.557791,94.9880225 151.130043,107.848343 123.73,146.43 C121.659646,149.341715 118.193179,150.927729 114.636383,150.590607 C111.079587,150.253485 107.972824,148.044444 106.486383,144.795607 C104.999941,141.546771 105.359646,137.751715 107.43,134.84 C136.66293,93.685587 189.15481,76.1611692 237.248088,91.5002227 C285.341365,106.839276 317.993361,151.519807 318,202 Z M94.26,159 L94.1,159.39 C93.97,159.7 93.85,160 93.73,160.31 C92.4438438,163.643288 93.0336745,167.409529 95.2773085,170.190017 C97.5209425,172.970505 101.077518,174.342817 104.607309,173.790017 C108.137099,173.237217 111.103844,170.843288 112.39,167.51 L112.57,167.06 L112.84,166.4 C114.194279,163.074207 113.661358,159.277618 111.443784,156.4532 C109.22621,153.628781 105.664496,152.21023 102.11234,152.736693 C98.5601848,153.263157 95.5630291,155.653795 94.26,159 L94.26,159 Z M202,79 C207.522847,79 212,74.5228475 212,69 L212,10 C212,4.4771525 207.522847,0 202,0 C196.477153,0 192,4.4771525 192,10 L192,69 C192,74.5228475 196.477153,79 202,79 Z M202,325 C196.477153,325 192,329.477153 192,335 L192,394 C192,399.522847 196.477153,404 202,404 C207.522847,404 212,399.522847 212,394 L212,335 C212,329.477153 207.522847,325 202,325 L202,325 Z M100.88,115 C103.350055,117.763202 107.145802,118.933641 110.743055,118.041326 C114.340308,117.149011 117.149011,114.340308 118.041326,110.743055 C118.933641,107.145802 117.763202,103.350055 115,100.88 L73.28,59.16 C69.3562111,55.3702779 63.1191522,55.4244763 59.2618142,59.2818142 C55.4044763,63.1391522 55.3502779,69.3762111 59.14,73.3 L100.88,115 Z M303.12,289 C300.658045,286.21039 296.850901,285.018261 293.237607,285.905532 C289.624313,286.792802 286.802364,289.612752 285.912534,293.225417 C285.022704,296.838082 286.212135,300.646069 289,303.11 L330.72,344.83 C333.230745,347.429566 336.948779,348.472126 340.445073,347.556972 C343.941368,346.641817 346.671817,343.911368 347.586972,340.415073 C348.502126,336.918779 347.459566,333.200745 344.86,330.69 L303.12,289 Z M79,202 C79,196.477153 74.5228475,192 69,192 L10,192 C4.4771525,192 0,196.477153 0,202 C0,207.522847 4.4771525,212 10,212 L69,212 C74.5228475,212 79,207.522847 79,202 Z M394,192 L335,192 C329.477153,192 325,196.477153 325,202 C325,207.522847 329.477153,212 335,212 L394,212 C399.522847,212 404,207.522847 404,202 C404,196.477153 399.522847,192 394,192 L394,192 Z M100.88,289 L59.16,330.72 C56.5604342,333.230745 55.517874,336.948779 56.4330284,340.445073 C57.3481828,343.941368 60.0786324,346.671817 63.5749268,347.586972 C67.0712211,348.502126 70.7892553,347.459566 73.3,344.86 L115,303.11 C117.787865,300.646069 118.977296,296.838082 118.087466,293.225417 C117.197636,289.612752 114.375687,286.792802 110.762393,285.905532 C107.149099,285.018261 103.341955,286.21039 100.88,289 L100.88,289 Z M296,118 C298.651948,117.999434 301.195073,116.945494 303.07,115.07 L344.79,73.35 C348.579722,69.4262111 348.525524,63.1891522 344.668186,59.3318142 C340.810848,55.4744763 334.573789,55.4202779 330.65,59.21 L289,100.88 C286.114036,103.726139 285.23158,108.032863 286.765612,111.784668 C288.299645,115.536473 291.946703,117.991176 296,118 Z" id="Shape" fill="#39285E"></path>
            <path d="M202,298 C244.837116,297.973105 282.472736,269.568161 294.244064,228.380117 C306.015392,187.192072 289.073555,143.189175 252.72,120.53 C215.302922,109.231976 174.704387,119.42902 147.066704,147.066704 C119.42902,174.704387 109.231976,215.302922 120.53,252.72 C138.046102,280.868559 168.846493,297.987029 202,298 Z" id="Shape" fill="#F4D4A0"></path>
        </g>
    </g>
</svg>